<svg width="42" height="42" viewBox="0 0 42 42" fill="none" xmlns="http://www.w3.org/2000/svg">
<rect width="42" height="42" rx="9" fill="#FF6C2E"/>
<path d="M26.2917 29.125C26.1251 29.1256 25.9608 29.0895 25.8125 29.0196L20.5 26.4608L15.1875 29.0196C15.015 29.103 14.8205 29.1403 14.6261 29.1271C14.4317 29.1139 14.2453 29.0508 14.0879 28.945C13.9306 28.8392 13.8087 28.6949 13.7361 28.5285C13.6634 28.3621 13.643 28.1803 13.6771 28.0038L14.7187 22.6083L10.4271 18.775C10.2932 18.6521 10.1982 18.4979 10.1523 18.3291C10.1064 18.1603 10.1114 17.9831 10.1667 17.8167C10.227 17.6464 10.3381 17.495 10.4872 17.3798C10.6364 17.2646 10.8176 17.1902 11.0104 17.165L16.9479 16.3696L19.5625 11.4533C19.6478 11.2913 19.781 11.1547 19.9468 11.0591C20.1126 10.9634 20.3043 10.9127 20.5 10.9127C20.6957 10.9127 20.8874 10.9634 21.0532 11.0591C21.219 11.1547 21.3522 11.2913 21.4375 11.4533L24.0833 16.36L30.0208 17.1554C30.2136 17.1806 30.3949 17.2551 30.544 17.3702C30.6931 17.4854 30.8042 17.6368 30.8646 17.8071C30.9198 17.9735 30.9248 18.1507 30.8789 18.3195C30.833 18.4883 30.7381 18.6425 30.6042 18.7654L26.3125 22.5988L27.3542 27.9942C27.3914 28.1738 27.3719 28.3595 27.298 28.5294C27.2242 28.6992 27.0991 28.846 26.9375 28.9525C26.7489 29.0741 26.5217 29.1348 26.2917 29.125Z" fill="white"/>
</svg>
