<svg width="42" height="42" viewBox="0 0 42 42" fill="none" xmlns="http://www.w3.org/2000/svg">
<rect width="42" height="42" rx="9" fill="#FF6C2E"/>
<path d="M29.8567 18.7602C30.0032 18.6438 30.2209 18.7527 30.2209 18.9366V26.6137C30.2209 27.6085 29.4138 28.4157 28.4189 28.4157H12.802C11.8071 28.4157 11 27.6085 11 26.6137V18.9404C11 18.7527 11.214 18.6476 11.3641 18.7639C12.2051 19.4171 13.32 20.2468 17.1492 23.0286C17.9413 23.6067 19.2777 24.823 20.6104 24.8155C21.9507 24.8268 23.3134 23.5842 24.0755 23.0286C27.9046 20.2468 29.0158 19.4134 29.8567 18.7602ZM20.6104 23.6104C21.4814 23.6255 22.7353 22.5143 23.3659 22.0563C28.3476 18.4411 28.7268 18.1257 29.8755 17.2248C30.0933 17.0558 30.2209 16.793 30.2209 16.5152V15.802C30.2209 14.8071 29.4138 14 28.4189 14H12.802C11.8071 14 11 14.8071 11 15.802V16.5152C11 16.793 11.1276 17.0521 11.3454 17.2248C12.4941 18.122 12.8733 18.4411 17.855 22.0563C18.4856 22.5143 19.7395 23.6255 20.6104 23.6104Z" fill="white"/>
</svg>
