<svg width="42" height="42" viewBox="0 0 42 42" fill="none" xmlns="http://www.w3.org/2000/svg">
<rect width="42" height="42" rx="9" fill="#FF6C2E"/>
<path d="M28.0714 18.0625H27.1071V14.8281C27.1071 11.0637 24.367 8 21 8C17.633 8 14.8929 11.0637 14.8929 14.8281V18.0625H13.9286C12.8638 18.0625 12 19.0283 12 20.2188V28.8438C12 30.0342 12.8638 31 13.9286 31H28.0714C29.1362 31 30 30.0342 30 28.8438V20.2188C30 19.0283 29.1362 18.0625 28.0714 18.0625ZM23.8929 18.0625H18.1071V14.8281C18.1071 13.0447 19.4049 11.5938 21 11.5938C22.5951 11.5938 23.8929 13.0447 23.8929 14.8281V18.0625Z" fill="white"/>
</svg>
