<svg width="82" height="81" viewBox="0 0 82 81" fill="none" xmlns="http://www.w3.org/2000/svg">
<ellipse cx="40.5787" cy="40.0617" rx="40.5787" ry="40.0617" transform="matrix(0.999941 -0.0108554 0.0105754 0.999944 0 0.880981)" fill="url(#paint0_linear_3_18)"/>
<path d="M40.7319 13.1808C33.6176 13.1808 27.7968 20.0932 27.7968 28.6103C27.7968 37.1273 33.6176 44.0397 40.7319 44.0397C47.8462 44.0397 53.667 37.1273 53.667 28.6103C53.667 20.0932 47.8462 13.1808 40.7319 13.1808ZM27.2147 44.0397C20.3591 44.3483 14.8616 49.7178 14.8616 56.3833V62.5551H66.6021V56.3833C66.6021 49.7178 61.1694 44.3483 54.2491 44.0397C50.7566 47.8045 45.9706 50.2115 40.7319 50.2115C35.4931 50.2115 30.7072 47.8045 27.2147 44.0397Z" fill="#A1E8D7"/>
<defs>
<linearGradient id="paint0_linear_3_18" x1="40.5787" y1="0" x2="40.5787" y2="80.1235" gradientUnits="userSpaceOnUse">
<stop stop-color="#008CAB"/>
<stop offset="1" stop-color="#00AB63"/>
</linearGradient>
</defs>
</svg>
