<svg width="22" height="20" viewBox="0 0 22 20" fill="none" xmlns="http://www.w3.org/2000/svg">
<path d="M15.125 0C13.7225 0 12.5125 0.873908 11.77 2.19725C13.0075 3.54557 13.75 5.39326 13.75 7.51561C13.75 8.2397 13.6675 8.88889 13.5025 9.53808C14.025 9.81273 14.5475 10.0125 15.125 10.0125C17.4075 10.0125 19.25 7.76529 19.25 5.01873C19.25 2.27216 17.4075 0.0249688 15.125 0.0249688V0ZM6.875 2.49688C4.5925 2.49688 2.75 4.74407 2.75 7.49064C2.75 10.2372 4.5925 12.4844 6.875 12.4844C9.1575 12.4844 11 10.2372 11 7.49064C11 4.74407 9.1575 2.49688 6.875 2.49688ZM19.9375 10.387C18.755 11.6604 17.1325 12.4345 15.29 12.4844C16.0325 13.4332 16.5 14.5818 16.5 15.8302V17.4782H22V13.3333C22 12.035 21.1475 10.9114 19.9375 10.362V10.387ZM2.0625 12.8839C0.8525 13.4332 0 14.5568 0 15.8552V20H13.75V15.8552C13.75 14.5568 12.8975 13.4332 11.6875 12.8839C10.45 14.2072 8.7725 14.9813 6.875 14.9813C4.9775 14.9813 3.3 14.1823 2.0625 12.8839Z" fill="#F2F2F2"/>
</svg>
