<svg width="175" height="46" viewBox="0 0 175 46" fill="none" xmlns="http://www.w3.org/2000/svg">
<path d="M49.46 28.59L43.46 28.11L42.5 36.12L39.2 36.27L37.79 16.5L51.02 16.08L50.93 18.09L44.6 18.84L43.73 25.95L49.31 25.89L49.46 28.59ZM62.8166 32.49C63.5566 31.53 64.0666 30.49 64.3466 29.37C64.6266 28.25 64.7666 27.28 64.7666 26.46C64.7666 25.62 64.6466 24 64.4066 21.6L70.8266 20.61L68.9066 36.18L65.9366 36.45L65.3366 30.75H65.1266C63.6466 34.71 61.2866 36.69 58.0466 36.69C57.5666 36.69 57.1666 36.61 56.8466 36.45C55.8266 35.21 55.1266 33.11 54.7466 30.15C54.3666 27.17 54.1766 24.2 54.1766 21.24L60.1766 20.79C59.8166 24.29 59.6366 26.91 59.6366 28.65C59.6366 30.39 59.7866 32.26 60.0866 34.26C61.1866 34.02 62.0966 33.43 62.8166 32.49ZM86.8295 20.31C87.2095 20.31 87.5795 20.37 87.9395 20.49C88.9595 21.73 89.6595 23.88 90.0395 26.94C90.4195 29.98 90.6095 33 90.6095 36L85.2095 36.45C85.2095 31.85 85.0395 27.66 84.6995 23.88C82.0395 24.86 80.2695 28.96 79.3895 36.18L76.4195 36.45L74.8895 21.57L81.3095 20.58L80.6495 25.86H80.9195C81.7195 24.12 82.6295 22.76 83.6495 21.78C84.6695 20.8 85.7295 20.31 86.8295 20.31Z" fill="#FBB664"/>
<path d="M96.36 36.88C95.72 36.88 95.24 36.6 94.92 36.04C94.6 35.5067 94.44 34.8267 94.44 34C94.44 33.4133 94.56 32.68 94.8 31.8C95.04 30.92 95.3733 30 95.8 29.04C96.2267 28.08 96.7067 27.1867 97.24 26.36C97.7733 25.5067 98.32 24.8267 98.88 24.32C99.4667 23.7867 100.04 23.52 100.6 23.52C101.053 23.52 101.373 23.6933 101.56 24.04C101.773 24.36 101.88 24.7067 101.88 25.08C101.88 25.4 101.813 25.6933 101.68 25.96C101.573 26.2 101.413 26.32 101.2 26.32C100.987 26.32 100.827 26.2267 100.72 26.04C100.64 25.8267 100.56 25.6133 100.48 25.4C100.427 25.1867 100.28 25.08 100.04 25.08C99.56 25.08 99.08 25.3867 98.6 26C98.12 26.6133 97.68 27.3867 97.28 28.32C96.88 29.2533 96.56 30.2267 96.32 31.24C96.08 32.2267 95.96 33.1067 95.96 33.88C95.96 34.44 96.0267 34.88 96.16 35.2C96.32 35.5467 96.5733 35.72 96.92 35.72C97.3733 35.72 97.8267 35.44 98.28 34.88C98.76 34.2933 99.2267 33.5467 99.68 32.64C100.133 31.7067 100.547 30.7333 100.92 29.72C101.32 28.7067 101.653 27.76 101.92 26.88C102.213 25.9733 102.44 25.2533 102.6 24.72C102.813 22.8533 103.067 20.9733 103.36 19.08C103.68 17.1867 104.147 15.3467 104.76 13.56C104.84 13.2667 104.96 13.0133 105.12 12.8C105.307 12.5867 105.493 12.48 105.68 12.48C105.893 12.48 106.067 12.6267 106.2 12.92C106.36 13.2133 106.44 13.5467 106.44 13.92C106.44 14.2133 106.387 14.52 106.28 14.84C106.173 15.16 106.04 15.5867 105.88 16.12C105.693 16.76 105.453 17.6133 105.16 18.68C104.893 19.72 104.613 20.9067 104.32 22.24C104.027 23.5467 103.773 24.9467 103.56 26.44C103.373 27.9067 103.28 29.3733 103.28 30.84C103.28 31.96 103.36 32.7467 103.52 33.2C103.68 33.6533 103.893 33.88 104.16 33.88C104.453 33.88 104.773 33.6933 105.12 33.32C105.493 32.9467 105.853 32.4933 106.2 31.96C106.573 31.4267 106.907 30.8933 107.2 30.36C107.493 29.8 107.72 29.36 107.88 29.04C108.173 28.4533 108.4 28.16 108.56 28.16C108.667 28.16 108.72 28.28 108.72 28.52C108.72 28.7067 108.68 28.9067 108.6 29.12C108.44 29.4667 108.333 29.7333 108.28 29.92C108.227 30.08 108.16 30.24 108.08 30.4C108.027 30.56 107.893 30.8133 107.68 31.16C107.493 31.48 107.2 31.92 106.8 32.48C106.4 33.0133 105.947 33.5067 105.44 33.96C104.933 34.3867 104.427 34.6 103.92 34.6C103.413 34.6 103.027 34.3867 102.76 33.96C102.52 33.5333 102.36 32.9867 102.28 32.32C102.227 31.6267 102.2 30.92 102.2 30.2C102.2 29.32 102.24 28.3867 102.32 27.4C102.133 28.04 101.88 28.8 101.56 29.68C101.24 30.5333 100.88 31.4 100.48 32.28C100.08 33.16 99.6533 33.96 99.2 34.68C98.8267 35.2667 98.4133 35.7733 97.96 36.2C97.5067 36.6533 96.9733 36.88 96.36 36.88ZM108.432 34.68C107.952 34.68 107.606 34.48 107.392 34.08C107.179 33.6533 107.072 33.16 107.072 32.6C107.072 31.88 107.192 31.04 107.432 30.08C107.699 29.12 108.046 28.1333 108.472 27.12C108.899 26.08 109.379 25.1333 109.912 24.28C110.472 23.4 111.059 22.6933 111.672 22.16C112.286 21.6 112.886 21.32 113.472 21.32C114.006 21.32 114.459 21.56 114.832 22.04C115.232 22.4933 115.432 23.0133 115.432 23.6C115.432 23.9467 115.379 24.24 115.272 24.48C115.166 24.6933 115.046 24.8 114.912 24.8C114.806 24.8 114.712 24.72 114.632 24.56C114.366 23.9467 114.072 23.5067 113.752 23.24C113.459 22.9733 113.152 22.84 112.832 22.84C112.299 22.84 111.766 23.1467 111.232 23.76C110.726 24.3467 110.312 25.0267 109.992 25.8C109.726 26.3867 109.472 27.0933 109.232 27.92C109.019 28.72 108.832 29.52 108.672 30.32C108.539 31.0933 108.472 31.7333 108.472 32.24C108.472 33.1467 108.686 33.6 109.112 33.6C109.646 33.6 110.326 33.0133 111.152 31.84C111.766 30.9867 112.312 30 112.792 28.88C113.299 27.76 113.726 26.7867 114.072 25.96C114.206 25.6933 114.352 25.52 114.512 25.44C114.672 25.36 114.819 25.32 114.952 25.32C115.272 25.32 115.472 25.4533 115.552 25.72C115.659 25.9867 115.712 26.2133 115.712 26.4C115.712 27.0933 115.646 27.72 115.512 28.28C115.379 28.8133 115.312 29.4667 115.312 30.24C115.312 30.8 115.352 31.32 115.432 31.8C115.539 32.2533 115.712 32.48 115.952 32.48C116.246 32.48 116.619 32.1067 117.072 31.36C117.179 31.1467 117.339 31.04 117.552 31.04C117.792 31.04 117.912 31.16 117.912 31.4C117.912 31.7467 117.672 32.12 117.192 32.52C116.712 32.8933 116.232 33.08 115.752 33.08C115.112 33.08 114.659 32.8133 114.392 32.28C113.939 31.4 113.712 30.6133 113.712 29.92C113.712 29.2 113.699 28.7067 113.672 28.44C113.539 28.76 113.286 29.2667 112.912 29.96C112.539 30.6267 112.099 31.3333 111.592 32.08C111.086 32.8 110.552 33.4133 109.992 33.92C109.432 34.4267 108.912 34.68 108.432 34.68ZM118.42 36.36C117.913 36.36 117.567 36.2133 117.38 35.92C117.273 35.76 117.22 35.5867 117.22 35.4C117.22 35.1867 117.313 34.9333 117.5 34.64C117.687 34.3467 118.02 34.08 118.5 33.84C118.553 33.8133 118.753 33.6933 119.1 33.48C119.473 33.2667 119.7 33.1467 119.78 33.12C119.62 32.5333 119.34 31.9467 118.94 31.36C118.54 30.7467 118.18 30.0533 117.86 29.28C117.54 28.5067 117.407 27.5467 117.46 26.4C117.513 25.3067 117.807 24.36 118.34 23.56C118.873 22.76 119.553 22.1067 120.38 21.6C121.233 21.0933 122.113 20.7467 123.02 20.56C123.233 20.5067 123.46 20.4667 123.7 20.44C123.94 20.4133 124.18 20.4 124.42 20.4C125.087 20.4 125.673 20.48 126.18 20.64C126.713 20.8 127.167 21.0667 127.54 21.44C127.94 21.8133 128.14 22.2267 128.14 22.68C128.14 22.9733 128.047 23.2667 127.86 23.56C127.807 23.6667 127.727 23.7733 127.62 23.88C127.513 23.9867 127.38 24.04 127.22 24.04C127.113 24.04 127.06 23.96 127.06 23.8C127.06 23.6667 127.087 23.4933 127.14 23.28C127.22 23.0667 127.273 22.9333 127.3 22.88C127.327 22.8267 127.34 22.7333 127.34 22.6C127.34 22.3067 127.26 22.0667 127.1 21.88C126.913 21.64 126.62 21.4933 126.22 21.44C125.847 21.3867 125.5 21.36 125.18 21.36C124.247 21.36 123.327 21.6133 122.42 22.12C121.513 22.6267 120.713 23.28 120.02 24.08C119.353 24.8533 118.887 25.68 118.62 26.56C118.54 26.8 118.487 27.04 118.46 27.28C118.433 27.4933 118.42 27.7067 118.42 27.92C118.42 28.8533 118.633 29.7467 119.06 30.6C119.487 31.4533 119.86 32.24 120.18 32.96C120.927 32.56 121.593 32.28 122.18 32.12C122.26 32.0933 122.327 32.08 122.38 32.08C122.46 32.08 122.513 32.08 122.54 32.08C122.673 32.08 122.74 32.12 122.74 32.2C122.74 32.3333 122.567 32.4667 122.22 32.6C122.14 32.6267 121.94 32.7067 121.62 32.84C121.3 32.9733 120.913 33.16 120.46 33.4C120.593 33.7467 120.66 34.08 120.66 34.4C120.66 34.72 120.58 35.0267 120.42 35.32C120.26 35.6133 119.98 35.8533 119.58 36.04C119.18 36.2533 118.793 36.36 118.42 36.36ZM118.54 35.28C118.567 35.4667 118.687 35.5067 118.9 35.4C119.14 35.2933 119.38 35.1067 119.62 34.84C119.86 34.5733 119.98 34.3067 119.98 34.04C119.98 33.9867 119.98 33.9333 119.98 33.88C120.007 33.8 120.007 33.72 119.98 33.64C119.58 33.88 119.233 34.1467 118.94 34.44C118.647 34.7067 118.513 34.9867 118.54 35.28ZM131.787 42C131.173 42 130.707 41.7467 130.387 41.24C130.093 40.7333 129.947 40.1467 129.947 39.48C129.947 38.68 130.093 37.76 130.387 36.72C130.707 35.7067 131.093 34.6667 131.547 33.6C132 32.5067 132.467 31.4533 132.947 30.44C133.453 29.4267 133.893 28.52 134.267 27.72C134.667 26.92 134.933 26.3067 135.067 25.88C135.227 25.4 135.307 25.04 135.307 24.8C135.307 24.5333 135.213 24.4 135.027 24.4C134.813 24.4 134.493 24.5733 134.067 24.92C133.667 25.24 133.267 25.6 132.867 26C132.493 26.4 132.227 26.6933 132.067 26.88C131.213 27.84 130.44 28.9067 129.747 30.08C129.08 31.2533 128.667 32.2533 128.507 33.08C128.48 33.2133 128.427 33.4533 128.347 33.8C128.293 34.1467 128.173 34.3067 127.987 34.28C127.72 34.2267 127.533 34.0667 127.427 33.8C127.347 33.5067 127.293 33.24 127.267 33C127.267 32.8667 127.253 32.7333 127.227 32.6C127.227 32.44 127.227 32.28 127.227 32.12C127.227 30.8133 127.373 29.3333 127.667 27.68C127.96 26.0267 128.333 24.3333 128.787 22.6C129.267 20.8667 129.773 19.2533 130.307 17.76C130.84 16.2667 131.347 15.0267 131.827 14.04C132.067 13.56 132.333 13.1067 132.627 12.68C132.92 12.2267 133.213 12 133.507 12C133.693 12 133.853 12.0933 133.987 12.28C134.147 12.4667 134.227 12.6267 134.227 12.76C134.227 12.8667 134.04 13.2933 133.667 14.04C133.32 14.76 132.867 15.72 132.307 16.92C131.747 18.0933 131.173 19.44 130.587 20.96C130.027 22.48 129.52 24.1067 129.067 25.84C128.613 27.5733 128.307 29.3333 128.147 31.12C128.147 31.1467 128.133 31.28 128.107 31.52C128.08 31.76 128.053 32 128.027 32.24C128.027 32.48 128.027 32.6 128.027 32.6V32.56H128.067C128.12 32.24 128.213 31.9333 128.347 31.64C128.507 31.3467 128.667 31.0667 128.827 30.8C129.627 29.2 130.653 27.6667 131.907 26.2C132.52 25.5067 133.16 24.9067 133.827 24.4C134.493 23.8667 135.187 23.6 135.907 23.6C136.2 23.6 136.453 23.68 136.667 23.84C136.88 24 136.987 24.3067 136.987 24.76C136.987 25.3467 136.787 26.04 136.387 26.84C136.013 27.6133 135.547 28.4267 134.987 29.28C134.453 30.1067 133.96 30.8933 133.507 31.64C132.893 32.68 132.333 33.7867 131.827 34.96C131.347 36.1067 131.107 37.3067 131.107 38.56C131.107 38.9333 131.133 39.3333 131.187 39.76C131.267 40.1867 131.387 40.5467 131.547 40.84C131.733 41.16 131.987 41.32 132.307 41.32C132.52 41.32 132.72 41.2533 132.907 41.12C133.12 41.0133 133.293 40.9067 133.427 40.8C133.667 40.56 133.827 40.44 133.907 40.44C133.987 40.44 134.027 40.48 134.027 40.56C134.027 40.72 133.96 40.8667 133.827 41C133.693 41.16 133.56 41.28 133.427 41.36C133.24 41.52 132.987 41.6667 132.667 41.8C132.373 41.9333 132.08 42 131.787 42Z" fill="white"/>
<path d="M5.21636 6L0 12.9375L8.69393 24.5L0 36.0625L5.21636 43L19.1266 24.5L5.21636 6Z" fill="white"/>
<path d="M19.0897 6L13.8734 12.9375L22.5673 24.5L13.8734 36.0625L19.0897 43L33 24.5L19.0897 6Z" fill="white"/>
</svg>
